<?xml version="1.0" encoding="utf-8"?>
<!-- Generator: Adobe Illustrator 15.0.0, SVG Export Plug-In . SVG Version: 6.00 Build 0)  -->
<!DOCTYPE svg PUBLIC "-//W3C//DTD SVG 1.1//EN" "http://www.w3.org/Graphics/SVG/1.1/DTD/svg11.dtd">
<svg version="1.1"
	 id="Layer_1" xmlns:rdf="http://www.w3.org/1999/02/22-rdf-syntax-ns#" xmlns:cc="http://creativecommons.org/ns#" xmlns:dc="http://purl.org/dc/elements/1.1/"
	 xmlns="http://www.w3.org/2000/svg" xmlns:xlink="http://www.w3.org/1999/xlink" x="0px" y="0px" width="32px" height="32px"
	 viewBox="0 0 32 32" enable-background="new 0 0 32 32" xml:space="preserve">
<path fill="#4AA14D" d="M8,2C6.892,2,6,2.892,6,4v4c0,1.108,0.892,2,2,2s2-0.892,2-2V4C10,2.892,9.108,2,8,2z M24,2
	c-1.107,0-2,0.892-2,2v4c0,1.108,0.893,2,2,2s2-0.892,2-2V4C26,2.892,25.107,2,24,2z M11,6v2c0,1.662-1.338,3-3,3S5,9.662,5,8V6.125
	C3.272,6.567,2,8.13,2,10v16c0,2.216,1.784,4,4,4h20c2.216,0,4-1.784,4-4V10c0-1.87-1.271-3.433-3-3.875V8c0,1.662-1.338,3-3,3
	s-3-1.338-3-3V6H11z M6.094,16h19.813C25.961,16,26,16.038,26,16.094v9.813C26,25.961,25.961,26,25.906,26H6.094
	C6.039,26,6,25.961,6,25.906v-9.813C6,16.038,6.039,16,6.094,16L6.094,16z"/>
</svg>
