<?xml version="1.0" encoding="utf-8"?>
<!-- Generator: Adobe Illustrator 15.0.0, SVG Export Plug-In . SVG Version: 6.00 Build 0)  -->
<!DOCTYPE svg PUBLIC "-//W3C//DTD SVG 1.1//EN" "http://www.w3.org/Graphics/SVG/1.1/DTD/svg11.dtd">
<svg version="1.1"
	 id="Layer_1" xmlns:rdf="http://www.w3.org/1999/02/22-rdf-syntax-ns#" xmlns:cc="http://creativecommons.org/ns#" xmlns:dc="http://purl.org/dc/elements/1.1/"
	 xmlns="http://www.w3.org/2000/svg" xmlns:xlink="http://www.w3.org/1999/xlink" x="0px" y="0px" width="32px" height="32px"
	 viewBox="0 0 32 32" enable-background="new 0 0 32 32" xml:space="preserve">
<path fill="#4AA14D" d="M9.24,6.67c-1.955,0-3.614,1.43-3.614,3.275c0.014,0.583,0.066,1.302,0.414,2.823v0.038l0.038,0.038
	c0.111,0.32,0.274,0.503,0.489,0.753c0.215,0.25,0.471,0.544,0.715,0.791c0.029,0.029,0.047,0.047,0.075,0.075
	c0.048,0.21,0.107,0.437,0.151,0.64c0.116,0.54,0.104,0.923,0.075,1.054c-0.84,0.295-1.885,0.646-2.823,1.054
	c-0.526,0.229-1.003,0.434-1.393,0.678s-0.777,0.429-0.903,0.979c-0.002,0.025-0.002,0.051,0,0.075
	c-0.123,1.131-0.309,2.793-0.452,3.915c-0.031,0.236,0.094,0.484,0.301,0.602c1.703,0.92,4.318,1.291,6.925,1.28
	c2.607-0.011,5.202-0.402,6.851-1.28c0.207-0.117,0.332-0.365,0.301-0.602c-0.045-0.352-0.101-1.142-0.15-1.92
	s-0.092-1.543-0.15-1.995c-0.021-0.112-0.074-0.218-0.151-0.301c-0.523-0.626-1.306-1.008-2.221-1.393
	c-0.835-0.353-1.814-0.718-2.785-1.129c-0.054-0.121-0.108-0.473,0-1.016c0.029-0.146,0.075-0.302,0.113-0.452
	c0.091-0.102,0.163-0.186,0.264-0.301c0.216-0.246,0.447-0.504,0.64-0.753c0.193-0.249,0.35-0.461,0.452-0.753l0.038-0.038
	c0.393-1.588,0.394-2.25,0.414-2.823V9.945C12.854,8.1,11.195,6.67,9.24,6.67L9.24,6.67z M19.576,3.665
	c-2.851,0-5.268,2.084-5.268,4.774c0.02,0.85,0.096,1.898,0.604,4.115v0.055l0.055,0.055c0.163,0.467,0.4,0.733,0.713,1.098
	s0.688,0.792,1.043,1.152c0.041,0.042,0.068,0.069,0.109,0.11c0.07,0.307,0.156,0.637,0.22,0.933
	c0.169,0.788,0.151,1.346,0.11,1.537c-1.225,0.43-2.749,0.941-4.116,1.536c-0.768,0.333-1.462,0.632-2.03,0.987
	c-0.568,0.356-1.133,0.625-1.317,1.428c-0.003,0.036-0.003,0.072,0,0.109c-0.18,1.648-0.451,4.071-0.659,5.707
	c-0.045,0.344,0.137,0.707,0.439,0.878c2.482,1.341,6.296,1.88,10.097,1.866c3.801-0.016,7.584-0.587,9.987-1.866
	c0.302-0.171,0.483-0.534,0.438-0.878c-0.066-0.512-0.147-1.664-0.219-2.799c-0.072-1.135-0.135-2.25-0.22-2.908
	c-0.03-0.163-0.106-0.317-0.22-0.439c-0.764-0.911-1.904-1.469-3.237-2.03c-1.218-0.513-2.646-1.045-4.062-1.646
	c-0.078-0.177-0.157-0.69,0-1.482c0.043-0.212,0.109-0.44,0.165-0.659c0.134-0.149,0.237-0.271,0.384-0.439
	c0.314-0.359,0.652-0.735,0.934-1.098c0.28-0.362,0.51-0.673,0.658-1.097l0.055-0.055c0.574-2.315,0.574-3.281,0.604-4.116V8.439
	C24.844,5.75,22.426,3.665,19.576,3.665L19.576,3.665z"/>
</svg>
