<?xml version="1.0" encoding="utf-8"?>
<!-- Generator: Adobe Illustrator 15.0.0, SVG Export Plug-In . SVG Version: 6.00 Build 0)  -->
<!DOCTYPE svg PUBLIC "-//W3C//DTD SVG 1.1//EN" "http://www.w3.org/Graphics/SVG/1.1/DTD/svg11.dtd">
<svg version="1.1"
	 id="Layer_1" xmlns:rdf="http://www.w3.org/1999/02/22-rdf-syntax-ns#" xmlns:cc="http://creativecommons.org/ns#" xmlns:dc="http://purl.org/dc/elements/1.1/"
	 xmlns="http://www.w3.org/2000/svg" xmlns:xlink="http://www.w3.org/1999/xlink" x="0px" y="0px" width="32px" height="32px"
	 viewBox="0 0 32 32" enable-background="new 0 0 32 32" xml:space="preserve">
<path fill="#4AA14D" d="M16,4C9.373,4,4,9.373,4,16c0,6.627,5.373,12,12,12c6.627,0,12-5.373,12-12C28,9.373,22.627,4,16,4z
	 M17.375,5.531c2.059,0.046,3.879,1.283,5.719,2.094l2.969,4.109L25.594,13.5l0.906,0.563l-0.016,2.094
	c-0.021,0.6,0.01,1.199-0.016,1.797c-0.285,1.136-0.943,2.172-1.5,3.203c-0.377,0.186,0.035-1.231-0.203-1.672
	c0.055-1.018-0.807-0.971-1.39-0.405c-0.722,0.421-2.308,0.548-2.358-0.594c-0.41-1.372-0.061-2.833,0.498-4.109l-0.921-1.125
	l0.327-2.891l-1.469-1.484l0.345-1.625l-1.72-0.969c-0.338-0.266-0.983-0.371-1.125-0.734C17.094,5.54,17.238,5.529,17.375,5.531
	L17.375,5.531z M13.156,5.547c0.054,0.008,0.12,0.045,0.219,0.125c0.58,0.318-0.142,0.68-0.313,1.016
	c-0.925,0.626,0.285,1.139,0.688,1.641c0.646-0.186,1.292-1.108,2.234-0.828c1.205-0.376,1.014,1.01,1.703,1.625
	c0.09,0.29,1.509,1.232,0.656,0.922c-0.702-0.544-1.482-0.503-1.984,0.281c-1.355,0.735-0.552-1.414-1.202-1.937
	c-0.982-1.096-0.57,0.818-0.687,1.391c-0.639-0.014-1.831-0.491-2.485,0.282l0.64,1.046l0.766-1.172
	c0.186-0.424,0.419,0.33,0.625,0.469c0.246,0.473,1.411,1.274,0.531,1.5c-1.304,0.723-2.329,1.82-3.438,2.797
	c-0.374,0.788-1.136,0.698-1.609,0.046c-1.144-0.704-1.059,1.126-1,1.812l1.001-0.625v1.032c-0.028,0.195-0.004,0.397-0.016,0.594
	c-0.701,0.731-1.407-1.027-2.016-1.422l-0.047-2.578c0.022-0.724-0.131-1.466,0.016-2.172c1.378-1.479,2.777-3.011,3.594-4.891
	h1.343c0.939,0.455,0.404-1.008,0.781-0.954L13.156,5.547z M11.172,18.953c0.163-0.018,0.349,0.02,0.547,0.125
	c1.265,0.181,2.211,1.099,3.219,1.797c0.803,0.796,2.542,0.541,2.734,1.891c-0.292,1.463-1.732,2.25-3,2.766
	c-0.316,0.177-0.657,0.317-1.016,0.375c-1.175,0.293-1.684-0.912-1.922-1.813c-0.532-1.114-1.862-1.958-1.672-3.327
	C10.094,20.085,10.466,19.028,11.172,18.953L11.172,18.953z"/>
</svg>
