<?xml version="1.0" encoding="utf-8"?>
<!-- Generator: Adobe Illustrator 15.0.0, SVG Export Plug-In . SVG Version: 6.00 Build 0)  -->
<!DOCTYPE svg PUBLIC "-//W3C//DTD SVG 1.1//EN" "http://www.w3.org/Graphics/SVG/1.1/DTD/svg11.dtd">
<svg version="1.1"
	 id="Layer_1" xmlns:rdf="http://www.w3.org/1999/02/22-rdf-syntax-ns#" xmlns:cc="http://creativecommons.org/ns#" xmlns:dc="http://purl.org/dc/elements/1.1/"
	 xmlns="http://www.w3.org/2000/svg" xmlns:xlink="http://www.w3.org/1999/xlink" x="0px" y="0px" width="16px" height="16px"
	 viewBox="0 0 16 16" enable-background="new 0 0 16 16" xml:space="preserve">
<filter  x="-.30029" y="-.29971" style="color-interpolation-filters:sRGB" width="1.6006" height="1.5994" id="a">
	<feGaussianBlur  stdDeviation="1.2386625"></feGaussianBlur>
</filter>
<g filter="url(#a)">
	<polygon fill="#FFFFFF" points="12.95,11.536 11.536,12.95 8,9.414 4.464,12.95 3.05,11.536 6.586,8 3.05,4.464 4.464,3.05 
		8,6.586 11.516,3.031 12.95,4.464 9.414,8 	"/>
	<polygon fill="none" stroke="#FFFFFF" stroke-width="2" points="12.95,11.536 11.536,12.95 8,9.414 4.464,12.95 3.05,11.536 
		6.586,8 3.05,4.464 4.464,3.05 8,6.586 11.516,3.031 12.95,4.464 9.414,8 	"/>
</g>
<path fill="#4AA14D" d="M12.95,11.536l-1.414,1.414L8,9.414L4.464,12.95L3.05,11.536L6.586,8L3.05,4.464L4.464,3.05L8,6.586
	l3.516-3.555l1.435,1.433L9.414,8L12.95,11.536z"/>
</svg>
