<?xml version="1.0" encoding="utf-8"?>
<!-- Generator: Adobe Illustrator 15.0.0, SVG Export Plug-In . SVG Version: 6.00 Build 0)  -->
<!DOCTYPE svg PUBLIC "-//W3C//DTD SVG 1.1//EN" "http://www.w3.org/Graphics/SVG/1.1/DTD/svg11.dtd">
<svg version="1.1"
	 id="Layer_1" xmlns:cc="http://creativecommons.org/ns#" xmlns:rdf="http://www.w3.org/1999/02/22-rdf-syntax-ns#" xmlns:dc="http://purl.org/dc/elements/1.1/"
	 xmlns="http://www.w3.org/2000/svg" xmlns:xlink="http://www.w3.org/1999/xlink" x="0px" y="0px" width="16px" height="16px"
	 viewBox="0 0 16 16" enable-background="new 0 0 16 16" xml:space="preserve">
<rect x="-62.897" y="-32.993" fill-opacity="0" width="163.31" height="97.986"/>
<path opacity="0.5" fill="#4AA14D" enable-background="new    " d="M5,7.475C5.155,7.855,5.325,8.163,5.645,7.72
	c0.406-0.268,1.759-1.428,1.662-0.342c-0.368,2.016-0.834,4.016-1.171,6.039c-0.392,1.115,0.635,2.067,1.638,1.312
	c1.078-0.502,1.991-1.287,2.927-2.012c-0.144-0.322-0.25-0.789-0.596-0.346c-0.469,0.238-1.47,1.316-1.697,0.471
	c0.315-2.181,0.975-4.295,1.366-6.461c0.396-1.005-0.365-2.223-1.4-1.363C7.117,5.634,6.084,6.602,5,7.475z M9.459,0.003
	C8.152-0.015,7.554,2.148,8.816,2.682c1.022,0.378,2.076-0.714,1.79-1.75C10.508,0.39,10.008-0.038,9.459,0.003L9.459,0.003z"/>
</svg>
