<?xml version="1.0" encoding="utf-8"?>
<!-- Generator: Adobe Illustrator 15.0.0, SVG Export Plug-In . SVG Version: 6.00 Build 0)  -->
<!DOCTYPE svg PUBLIC "-//W3C//DTD SVG 1.1//EN" "http://www.w3.org/Graphics/SVG/1.1/DTD/svg11.dtd">
<svg version="1.1"
	 id="Layer_1" xmlns:cc="http://creativecommons.org/ns#" xmlns:rdf="http://www.w3.org/1999/02/22-rdf-syntax-ns#" xmlns:dc="http://purl.org/dc/elements/1.1/"
	 xmlns="http://www.w3.org/2000/svg" xmlns:xlink="http://www.w3.org/1999/xlink" x="0px" y="0px" width="16px" height="16px"
	 viewBox="0 0 16 16" enable-background="new 0 0 16 16" xml:space="preserve">
<path fill="#4AA14D" d="M0.889,3C0.396,3,0,3.397,0,3.889v8.222C0,12.604,0.396,13,0.889,13h14.223C15.604,13,16,12.604,16,12.111
	V3.889C16,3.397,15.604,3,15.111,3H0.889z M1.639,4.028l6.083,6.083H8.25l6.111-6.083l0.611,0.611l-3.639,3.694l2.75,2.805
	l-0.611,0.611l-2.807-2.805L8.639,11H7.361L5.334,8.945l-2.806,2.833l-0.611-0.64l2.777-2.805L1.028,4.64L1.639,4.028z"/>
</svg>
