<?xml version="1.0" encoding="utf-8"?>
<!-- Generator: Adobe Illustrator 15.0.0, SVG Export Plug-In . SVG Version: 6.00 Build 0)  -->
<!DOCTYPE svg PUBLIC "-//W3C//DTD SVG 1.1//EN" "http://www.w3.org/Graphics/SVG/1.1/DTD/svg11.dtd">
<svg version="1.1"
	 id="Layer_1" xmlns:cc="http://creativecommons.org/ns#" xmlns:rdf="http://www.w3.org/1999/02/22-rdf-syntax-ns#" xmlns:dc="http://purl.org/dc/elements/1.1/"
	 xmlns="http://www.w3.org/2000/svg" xmlns:xlink="http://www.w3.org/1999/xlink" x="0px" y="0px" width="16px" height="16px"
	 viewBox="0 0 16 16" enable-background="new 0 0 16 16" xml:space="preserve">
<rect x="-62.897" y="-32.993" fill-opacity="0" width="163.31" height="97.986"/>
<path fill="#4AA14D" d="M3,6C1.896,6,1,6.896,1,8s0.896,2,2,2s2-0.896,2-2S4.104,6,3,6z M8,6C6.896,6,6,6.896,6,8s0.896,2,2,2
	s2-0.896,2-2S9.104,6,8,6z M13,6c-1.105,0-2,0.896-2,2s0.895,2,2,2s2-0.896,2-2S14.105,6,13,6z"/>
</svg>
