<?xml version="1.0" encoding="utf-8"?>
<!-- Generator: Adobe Illustrator 15.0.0, SVG Export Plug-In . SVG Version: 6.00 Build 0)  -->
<!DOCTYPE svg PUBLIC "-//W3C//DTD SVG 1.1//EN" "http://www.w3.org/Graphics/SVG/1.1/DTD/svg11.dtd">
<svg version="1.1"
	 id="Layer_1" xmlns:cc="http://creativecommons.org/ns#" xmlns:rdf="http://www.w3.org/1999/02/22-rdf-syntax-ns#" xmlns:dc="http://purl.org/dc/elements/1.1/"
	 xmlns="http://www.w3.org/2000/svg" xmlns:xlink="http://www.w3.org/1999/xlink" x="0px" y="0px" width="16px" height="16px"
	 viewBox="0 0 16 16" enable-background="new 0 0 16 16" xml:space="preserve">
<g transform="matrix(.67042 -.67042 .67042 .67042 .62542 93.143)">
	<path fill="#4AA14D" d="M69.5-61.5c-1.922,0-3.5,1.578-3.5,3.5c0,0.174,0.006,0.332,0.031,0.5h2.063C68.041-57.656,68-57.823,68-58
		c0-0.848,0.651-1.5,1.5-1.5l5,0c0.848,0,1.5,0.652,1.5,1.5c0,0.848-0.652,1.5-1.5,1.5L72.812-56.5c-0.287,0.796-0.786,1.48-1.438,2
		h3.124c1.922,0,3.501-1.578,3.5-3.5c0-1.921-1.578-3.5-3.5-3.5H69.5L69.5-61.5z"/>
	<path fill="#4AA14D" d="M68.5-54.499C70.422-54.5,72-56.078,72-58c0-0.174-0.007-0.333-0.032-0.5l-2.062,0
		c0.053,0.156,0.094,0.323,0.093,0.5c0,0.849-0.651,1.5-1.5,1.5l-5,0.001C62.652-56.499,62-57.151,62-58
		c0.001-0.848,0.652-1.5,1.5-1.5l1.688,0c0.287-0.795,0.786-1.479,1.438-2l-3.125,0C61.578-61.5,60-59.921,60-58
		c0,1.922,1.578,3.501,3.5,3.5L68.5-54.499L68.5-54.499z"/>
</g>
</svg>
