<?xml version="1.0" encoding="utf-8"?>
<!-- Generator: Adobe Illustrator 15.0.0, SVG Export Plug-In . SVG Version: 6.00 Build 0)  -->
<!DOCTYPE svg PUBLIC "-//W3C//DTD SVG 1.1//EN" "http://www.w3.org/Graphics/SVG/1.1/DTD/svg11.dtd">
<svg version="1.1"
	 id="Layer_1" xmlns:cc="http://creativecommons.org/ns#" xmlns:rdf="http://www.w3.org/1999/02/22-rdf-syntax-ns#" xmlns:dc="http://purl.org/dc/elements/1.1/"
	 xmlns="http://www.w3.org/2000/svg" xmlns:xlink="http://www.w3.org/1999/xlink" x="0px" y="0px" width="16px" height="16px"
	 viewBox="0 0 16 16" enable-background="new 0 0 16 16" xml:space="preserve">
<rect x="-62.897" y="-32.993" fill-opacity="0" width="163.31" height="97.986"/>
<path opacity="0.5" fill="#4AA14D" enable-background="new    " d="M6,1C3.239,1,1,3.239,1,6c0,2.762,2.239,5,5,5
	c0.985,0,1.882-0.289,2.656-0.781l4.469,4.625c0.096,0.105,0.227,0.164,0.375,0.156s0.303-0.071,0.406-0.188l0.938-1.063
	c0.191-0.221,0.195-0.536,0-0.719L10.25,8.625C10.728,7.859,11,6.97,11,6C11,3.239,8.762,1,6,1L6,1z M6,3c1.657,0,3,1.343,3,3
	S7.657,9,6,9S3,7.657,3,6S4.343,3,6,3z"/>
</svg>
