<?xml version="1.0" encoding="utf-8"?>
<!-- Generator: Adobe Illustrator 15.0.0, SVG Export Plug-In . SVG Version: 6.00 Build 0)  -->
<!DOCTYPE svg PUBLIC "-//W3C//DTD SVG 1.1//EN" "http://www.w3.org/Graphics/SVG/1.1/DTD/svg11.dtd">
<svg version="1.1"
	 id="Layer_1" xmlns:cc="http://creativecommons.org/ns#" xmlns:rdf="http://www.w3.org/1999/02/22-rdf-syntax-ns#" xmlns:dc="http://purl.org/dc/elements/1.1/"
	 xmlns="http://www.w3.org/2000/svg" xmlns:xlink="http://www.w3.org/1999/xlink" x="0px" y="0px" width="16px" height="16px"
	 viewBox="0 0 16 16" enable-background="new 0 0 16 16" xml:space="preserve">
<g transform="translate(0 -1036.4)">
	<path fill="#4AA14D" d="M12.229,1037.4c-1.357,0-2.459,1.098-2.459,2.454c0,0.075,0.008,0.15,0.014,0.224l-4.734,2.415
		c-0.429-0.367-0.986-0.586-1.595-0.586c-1.357,0-2.455,1.098-2.455,2.455c0,1.356,1.098,2.454,2.455,2.454
		c0.546,0,1.053-0.175,1.46-0.477l4.864,2.475c-0.003,0.043-0.01,0.089-0.01,0.134c0,1.356,1.102,2.454,2.459,2.454
		c1.355,0,2.453-1.098,2.453-2.454s-1.098-2.459-2.453-2.459c-0.637,0-1.219,0.243-1.654,0.641l-4.696-2.4
		c0.019-0.123,0.035-0.25,0.035-0.377c0-0.072-0.009-0.144-0.015-0.214l4.74-2.415c0.429,0.363,0.985,0.582,1.59,0.582
		c1.356,0,2.454-1.103,2.454-2.459s-1.098-2.454-2.454-2.454L12.229,1037.4z"/>
</g>
</svg>
