<?xml version="1.0" encoding="utf-8"?>
<!-- Generator: Adobe Illustrator 15.0.0, SVG Export Plug-In . SVG Version: 6.00 Build 0)  -->
<!DOCTYPE svg PUBLIC "-//W3C//DTD SVG 1.1//EN" "http://www.w3.org/Graphics/SVG/1.1/DTD/svg11.dtd">
<svg version="1.1"
	 id="Layer_1" xmlns:cc="http://creativecommons.org/ns#" xmlns:rdf="http://www.w3.org/1999/02/22-rdf-syntax-ns#" xmlns:dc="http://purl.org/dc/elements/1.1/"
	 xmlns="http://www.w3.org/2000/svg" xmlns:xlink="http://www.w3.org/1999/xlink" x="0px" y="0px" width="16px" height="16px"
	 viewBox="0 0 16 16" enable-background="new 0 0 16 16" xml:space="preserve">
<g transform="translate(0 -1036.4)">
	<path fill="#4AA14D" d="M1,1042.4v4h3l3,3h1v-10H7l-3,3H1z"/>
	<path fill="#4AA14D" d="M13.25,1039.4l-0.781,0.625c0.965,1.2,1.531,2.715,1.531,4.375c0,1.66-0.566,3.176-1.531,4.375l0.781,0.625
		c1.098-1.369,1.75-3.107,1.75-5C15,1042.508,14.348,1040.77,13.25,1039.4z M11.688,1040.65l-0.813,0.656
		c0.688,0.856,1.125,1.91,1.125,3.094c0,1.184-0.438,2.237-1.125,3.094l0.813,0.656c0.823-1.027,1.313-2.332,1.313-3.75
		C13,1042.982,12.511,1041.677,11.688,1040.65z M10.125,1041.9l-0.781,0.625c0.411,0.514,0.656,1.166,0.656,1.875
		s-0.245,1.361-0.656,1.875l0.781,0.625c0.545-0.684,0.875-1.558,0.875-2.5S10.67,1042.584,10.125,1041.9z"/>
</g>
</svg>
