<?xml version="1.0" encoding="utf-8"?>
<!-- Generator: Adobe Illustrator 15.0.0, SVG Export Plug-In . SVG Version: 6.00 Build 0)  -->
<!DOCTYPE svg PUBLIC "-//W3C//DTD SVG 1.1//EN" "http://www.w3.org/Graphics/SVG/1.1/DTD/svg11.dtd">
<svg version="1.1"
	 id="Layer_1" xmlns:rdf="http://www.w3.org/1999/02/22-rdf-syntax-ns#" xmlns:cc="http://creativecommons.org/ns#" xmlns:dc="http://purl.org/dc/elements/1.1/"
	 xmlns="http://www.w3.org/2000/svg" xmlns:xlink="http://www.w3.org/1999/xlink" x="0px" y="0px" width="16px" height="16px"
	 viewBox="0 0 16 16" enable-background="new 0 0 16 16" xml:space="preserve">
<path fill="#4AA14D" d="M1.5,1h5C6.776,1,7,1.224,7,1.5v5C7,6.776,6.776,7,6.5,7h-5C1.224,7,1,6.776,1,6.5v-5C1,1.224,1.224,1,1.5,1
	z"/>
<path fill="#4AA14D" d="M9.5,1h5C14.776,1,15,1.224,15,1.5v5C15,6.776,14.776,7,14.5,7h-5C9.224,7,9,6.776,9,6.5v-5
	C9,1.224,9.224,1,9.5,1z"/>
<path fill="#4AA14D" d="M9.5,9h5C14.776,9,15,9.224,15,9.5v5c0,0.276-0.224,0.5-0.5,0.5h-5C9.224,15,9,14.776,9,14.5v-5
	C9,9.224,9.224,9,9.5,9z"/>
<path fill="#4AA14D" d="M1.5,9h5C6.776,9,7,9.224,7,9.5v5C7,14.776,6.776,15,6.5,15h-5C1.224,15,1,14.776,1,14.5v-5
	C1,9.224,1.224,9,1.5,9z"/>
</svg>
