<?xml version="1.0" encoding="utf-8"?>
<!-- Generator: Adobe Illustrator 15.0.0, SVG Export Plug-In . SVG Version: 6.00 Build 0)  -->
<!DOCTYPE svg PUBLIC "-//W3C//DTD SVG 1.1//EN" "http://www.w3.org/Graphics/SVG/1.1/DTD/svg11.dtd">
<svg version="1.1"
	 id="Layer_1" xmlns:cc="http://creativecommons.org/ns#" xmlns:rdf="http://www.w3.org/1999/02/22-rdf-syntax-ns#" xmlns:dc="http://purl.org/dc/elements/1.1/"
	 xmlns="http://www.w3.org/2000/svg" xmlns:xlink="http://www.w3.org/1999/xlink" x="0px" y="0px" width="16px" height="16px"
	 viewBox="0 0 16 16" enable-background="new 0 0 16 16" xml:space="preserve">
<path fill="#4AA14D" d="M8,3C4.891,3,2.073,4.719,0,7.5C2.073,10.281,4.891,12,8,12c3.111,0,5.927-1.719,8-4.5
	C13.927,4.719,11.109,3,8,3z M8,4.5c1.657,0,3,1.343,3,3s-1.343,3-3,3s-3-1.343-3-3S6.343,4.5,8,4.5z M8,6
	C7.171,6,6.5,6.671,6.5,7.5C6.5,8.328,7.171,9,8,9c0.828,0,1.5-0.672,1.5-1.5S8.828,6,8,6z"/>
</svg>
