<?xml version="1.0" encoding="utf-8"?>
<!-- Generator: Adobe Illustrator 15.0.0, SVG Export Plug-In . SVG Version: 6.00 Build 0)  -->
<!DOCTYPE svg PUBLIC "-//W3C//DTD SVG 1.1//EN" "http://www.w3.org/Graphics/SVG/1.1/DTD/svg11.dtd">
<svg version="1.1"
	 id="Layer_1" xmlns:cc="http://creativecommons.org/ns#" xmlns:rdf="http://www.w3.org/1999/02/22-rdf-syntax-ns#" xmlns:dc="http://purl.org/dc/elements/1.1/"
	 xmlns="http://www.w3.org/2000/svg" xmlns:xlink="http://www.w3.org/1999/xlink" x="0px" y="0px" width="16px" height="16px"
	 viewBox="0 0 16 16" enable-background="new 0 0 16 16" xml:space="preserve">
<path fill="#4AA14D" d="M1.5,1h3C4.776,1,5,1.224,5,1.5v3C5,4.776,4.776,5,4.5,5h-3C1.224,5,1,4.776,1,4.5v-3C1,1.224,1.224,1,1.5,1
	z"/>
<path fill="#4AA14D" d="M6.5,2h8C14.776,2,15,2.224,15,2.5l0,0C15,2.776,14.776,3,14.5,3h-8C6.224,3,6,2.776,6,2.5l0,0
	C6,2.224,6.224,2,6.5,2z"/>
<path fill="#4AA14D" d="M1.5,6h3C4.776,6,5,6.224,5,6.5v3C5,9.776,4.776,10,4.5,10h-3C1.224,10,1,9.776,1,9.5v-3
	C1,6.224,1.224,6,1.5,6z"/>
<path fill="#4AA14D" d="M6.5,7h8C14.776,7,15,7.224,15,7.5l0,0C15,7.776,14.776,8,14.5,8h-8C6.224,8,6,7.776,6,7.5l0,0
	C6,7.224,6.224,7,6.5,7z"/>
<path fill="#4AA14D" d="M1.5,11h3C4.776,11,5,11.224,5,11.5v3C5,14.776,4.776,15,4.5,15h-3C1.224,15,1,14.776,1,14.5v-3
	C1,11.224,1.224,11,1.5,11z"/>
<path fill="#4AA14D" d="M6.5,12h8c0.276,0,0.5,0.224,0.5,0.5l0,0c0,0.276-0.224,0.5-0.5,0.5h-8C6.224,13,6,12.776,6,12.5l0,0
	C6,12.224,6.224,12,6.5,12z"/>
</svg>
