<?xml version="1.0" encoding="utf-8"?>
<!-- Generator: Adobe Illustrator 15.0.0, SVG Export Plug-In . SVG Version: 6.00 Build 0)  -->
<!DOCTYPE svg PUBLIC "-//W3C//DTD SVG 1.1//EN" "http://www.w3.org/Graphics/SVG/1.1/DTD/svg11.dtd">
<svg version="1.1"
	 id="Layer_1" xmlns:cc="http://creativecommons.org/ns#" xmlns:rdf="http://www.w3.org/1999/02/22-rdf-syntax-ns#" xmlns:dc="http://purl.org/dc/elements/1.1/"
	 xmlns="http://www.w3.org/2000/svg" xmlns:xlink="http://www.w3.org/1999/xlink" x="0px" y="0px" width="16px" height="16px"
	 viewBox="0 0 16 16" enable-background="new 0 0 16 16" xml:space="preserve">
<rect x="-62.897" y="-32.993" fill-opacity="0" width="163.31" height="97.986"/>
<path fill="#4AA14D" d="M8.404,1c-1.731,0-3.2,1.266-3.2,2.9C5.216,4.417,5.262,5.053,5.57,6.4v0.034l0.034,0.033
	C5.703,6.75,5.847,6.912,6.037,7.133s0.417,0.481,0.633,0.7C6.696,7.859,6.712,7.875,6.737,7.9C6.78,8.086,6.832,8.287,6.87,8.467
	C6.973,8.945,6.962,9.284,6.937,9.4c-0.744,0.261-1.669,0.572-2.5,0.934c-0.466,0.202-0.888,0.383-1.233,0.6
	c-0.345,0.216-0.688,0.379-0.8,0.866c-0.16,0.633-0.198,0.754-0.4,1.533c-0.027,0.21,0.083,0.43,0.267,0.534
	C3.778,14.682,6.095,15.009,8.404,15c2.309-0.01,4.606-0.356,6.066-1.133c0.118-0.074,0.144-0.109,0.134-0.234
	c-0.044-0.688-0.082-1.366-0.134-1.766c-0.019-0.1-0.065-0.193-0.134-0.268c-0.463-0.553-1.156-0.892-1.966-1.232
	c-0.739-0.313-1.606-0.635-2.467-1c-0.048-0.107-0.096-0.42,0-0.9c0.026-0.129,0.066-0.268,0.101-0.4
	c0.08-0.091,0.144-0.165,0.232-0.267c0.191-0.218,0.396-0.446,0.566-0.667c0.172-0.22,0.311-0.409,0.4-0.667l0.033-0.033
	c0.349-1.406,0.35-1.993,0.367-2.5V3.9C11.604,2.266,10.135,1,8.404,1L8.404,1z"/>
</svg>
