<?xml version="1.0" encoding="utf-8"?>
<!-- Generator: Adobe Illustrator 15.0.0, SVG Export Plug-In . SVG Version: 6.00 Build 0)  -->
<!DOCTYPE svg PUBLIC "-//W3C//DTD SVG 1.1//EN" "http://www.w3.org/Graphics/SVG/1.1/DTD/svg11.dtd">
<svg version="1.1"
	 id="Layer_1" xmlns:rdf="http://www.w3.org/1999/02/22-rdf-syntax-ns#" xmlns:cc="http://creativecommons.org/ns#" xmlns:dc="http://purl.org/dc/elements/1.1/"
	 xmlns="http://www.w3.org/2000/svg" xmlns:xlink="http://www.w3.org/1999/xlink" x="0px" y="0px" width="16px" height="16px"
	 viewBox="0 0 16 16" enable-background="new 0 0 16 16" xml:space="preserve">
<path fill="#4AA14D" d="M7.938,0C4.82,0.023,1.862,1.876,0.594,4.938l2.781,1.156c1.057-2.551,3.98-3.775,6.531-2.719
	C10.77,3.732,11.48,4.302,12,5l-2,2h6V1l-1.875,1.875c-0.803-0.961-1.825-1.769-3.063-2.281C10.042,0.171,8.977-0.008,7.938,0
	L7.938,0z"/>
<path fill="#4AA14D" d="M0,9.5v6l2.094-2.094c0.768,0.843,1.721,1.535,2.844,2c4.082,1.691,8.777-0.262,10.468-4.344l-2.78-1.156
	c-1.058,2.551-3.98,3.775-6.532,2.719C5.35,12.316,4.742,11.82,4.25,11.25L6,9.5H0L0,9.5z"/>
</svg>
