<?xml version="1.0" encoding="utf-8"?>
<!-- Generator: Adobe Illustrator 15.0.0, SVG Export Plug-In . SVG Version: 6.00 Build 0)  -->
<!DOCTYPE svg PUBLIC "-//W3C//DTD SVG 1.1//EN" "http://www.w3.org/Graphics/SVG/1.1/DTD/svg11.dtd">
<svg version="1.1"
	 id="Layer_1" xmlns:rdf="http://www.w3.org/1999/02/22-rdf-syntax-ns#" xmlns:cc="http://creativecommons.org/ns#" xmlns:dc="http://purl.org/dc/elements/1.1/"
	 xmlns="http://www.w3.org/2000/svg" xmlns:xlink="http://www.w3.org/1999/xlink" x="0px" y="0px" width="22.93px" height="16px"
	 viewBox="0 0 22.93 16" enable-background="new 0 0 22.93 16" xml:space="preserve">
<g transform="matrix(.99997 0 0 .99997 -1.1136 -.99954)">
	<path fill="#4AA14D" d="M23.704,2.625c-0.226-0.226-0.494-0.339-0.803-0.339h-1.143V1.428c0-0.393-0.141-0.729-0.42-1.009
		C21.058,0.14,20.722,0,20.33,0h-0.571c-0.394,0-0.73,0.14-1.01,0.42c-0.279,0.28-0.419,0.616-0.419,1.009v0.857h-3.429V1.428
		c0-0.393-0.141-0.729-0.42-1.009S13.865,0,13.472,0h-0.571c-0.394,0-0.73,0.14-1.01,0.42c-0.279,0.28-0.419,0.616-0.419,1.009
		v0.857h-1.144c-0.31,0-0.577,0.113-0.804,0.339C9.299,2.851,9.186,3.119,9.186,3.428v11.429c0,0.309,0.113,0.577,0.34,0.803
		C9.751,15.887,10.019,16,10.329,16h12.573c0.31,0,0.577-0.113,0.804-0.34c0.226-0.226,0.339-0.494,0.339-0.803V3.428
		C24.044,3.119,23.93,2.851,23.704,2.625L23.704,2.625z M19.472,1.428c0-0.083,0.026-0.152,0.08-0.205
		c0.053-0.054,0.122-0.081,0.205-0.081h0.571c0.084,0,0.152,0.027,0.206,0.081c0.053,0.053,0.08,0.122,0.08,0.205V4
		c0,0.083-0.027,0.152-0.08,0.206c-0.054,0.053-0.122,0.08-0.206,0.08h-0.571c-0.083,0-0.152-0.027-0.205-0.08
		c-0.054-0.054-0.08-0.122-0.08-0.206V1.428z M12.615,1.428c0-0.083,0.026-0.152,0.08-0.205c0.054-0.054,0.122-0.081,0.205-0.081
		h0.571c0.084,0,0.152,0.027,0.206,0.081c0.053,0.053,0.08,0.122,0.08,0.205V4c0,0.083-0.026,0.152-0.08,0.206
		c-0.054,0.053-0.122,0.08-0.206,0.08H12.9c-0.083,0-0.151-0.027-0.205-0.08c-0.054-0.054-0.08-0.122-0.08-0.206V1.428z
		 M22.9,14.857H10.329V5.715H22.9V14.857z"/>
	<path fill="#4AA14D" d="M18.292,7.786c-0.487-0.563-1.098-0.844-1.829-0.844c-0.649,0-1.188,0.217-1.616,0.652
		c-0.429,0.435-0.643,0.964-0.643,1.589c0,0.601,0.199,1.115,0.598,1.541c0.399,0.426,0.914,0.638,1.545,0.638
		c0.262,0,0.514-0.042,0.755-0.125c0.24-0.083,0.424-0.193,0.549-0.33h0.018c-0.095,0.518-0.293,0.95-0.594,1.299
		c-0.301,0.349-0.701,0.522-1.201,0.522c-0.226,0-0.449-0.039-0.669-0.116c-0.095-0.023-0.188-0.057-0.276-0.099l-0.349,1.01
		c0.107,0.041,0.232,0.086,0.375,0.134c0.273,0.095,0.596,0.143,0.965,0.143c0.41,0,0.79-0.073,1.138-0.219
		c0.349-0.146,0.642-0.341,0.88-0.585s0.44-0.527,0.606-0.852c0.167-0.325,0.289-0.664,0.366-1.019
		c0.078-0.355,0.116-0.716,0.116-1.085C19.025,9.1,18.781,8.349,18.292,7.786L18.292,7.786z M17.462,10.131
		c-0.208,0.16-0.461,0.24-0.759,0.24c-0.404,0-0.716-0.113-0.933-0.339c-0.218-0.226-0.326-0.509-0.326-0.848
		s0.092-0.619,0.276-0.839s0.432-0.33,0.741-0.33c0.352,0,0.658,0.157,0.92,0.473c0.262,0.315,0.393,0.661,0.393,1.036
		C17.774,9.767,17.671,9.97,17.462,10.131L17.462,10.131z"/>
</g>
<path fill="#4AA14D" d="M6.008,3.428H4.293v12.286c0,0.083-0.026,0.151-0.08,0.206C4.159,15.973,4.091,16,4.008,16H2.293
	c-0.083,0-0.151-0.027-0.205-0.08c-0.054-0.055-0.081-0.123-0.081-0.206V3.428H0.293c-0.131,0-0.221-0.059-0.268-0.178
	c-0.048-0.113-0.027-0.217,0.063-0.313L2.945,0.08C3.01,0.026,3.079,0,3.15,0c0.077,0,0.146,0.027,0.205,0.08l2.849,2.848
	c0.06,0.071,0.089,0.143,0.089,0.214c0,0.083-0.026,0.152-0.08,0.206S6.091,3.428,6.008,3.428L6.008,3.428z"/>
</svg>
