<?xml version="1.0" encoding="utf-8"?>
<!-- Generator: Adobe Illustrator 15.0.0, SVG Export Plug-In . SVG Version: 6.00 Build 0)  -->
<!DOCTYPE svg PUBLIC "-//W3C//DTD SVG 1.1//EN" "http://www.w3.org/Graphics/SVG/1.1/DTD/svg11.dtd">
<svg version="1.1"
	 id="Layer_1" xmlns:rdf="http://www.w3.org/1999/02/22-rdf-syntax-ns#" xmlns:cc="http://creativecommons.org/ns#" xmlns:dc="http://purl.org/dc/elements/1.1/"
	 xmlns="http://www.w3.org/2000/svg" xmlns:xlink="http://www.w3.org/1999/xlink" x="0px" y="0px" width="16px" height="16px"
	 viewBox="0 0 16 16" enable-background="new 0 0 16 16" xml:space="preserve">
<path fill="#4AA14D" d="M1.457,1.998c-0.25,0-0.461,0.208-0.461,0.459v11.08c0,0.259,0.202,0.461,0.461,0.461h13.08
	c0.259,0,0.459-0.202,0.459-0.461V4.459c0-0.25-0.208-0.461-0.459-0.461H7.996l-2-2H1.457z M5.172,6h6.57
	C11.868,5.999,12,6.136,12,6.305v5.477C12,11.896,11.895,12,11.781,12H5.219C5.106,12,5,11.896,5,11.781V6.219
	C4.998,6.117,5.073,6.019,5.172,6z M5.5,6.5V11H6l2-2l1.5,1.5l1.5-2L11.5,9V6.5H5.5z M6.75,7C7.164,7,7.5,7.336,7.5,7.75
	S7.164,8.5,6.75,8.5S6,8.164,6,7.75S6.336,7,6.75,7z"/>
</svg>
