<?xml version="1.0" encoding="utf-8"?>
<!-- Generator: Adobe Illustrator 15.0.0, SVG Export Plug-In . SVG Version: 6.00 Build 0)  -->
<!DOCTYPE svg PUBLIC "-//W3C//DTD SVG 1.1//EN" "http://www.w3.org/Graphics/SVG/1.1/DTD/svg11.dtd">
<svg version="1.1"
	 id="Layer_1" xmlns:rdf="http://www.w3.org/1999/02/22-rdf-syntax-ns#" xmlns:cc="http://creativecommons.org/ns#" xmlns:dc="http://purl.org/dc/elements/1.1/"
	 xmlns="http://www.w3.org/2000/svg" xmlns:xlink="http://www.w3.org/1999/xlink" x="0px" y="0px" width="32px" height="32px"
	 viewBox="0 0 32 32" enable-background="new 0 0 32 32" xml:space="preserve">
<path fill="#4AA14D" d="M2.688,4C2.292,4.077,1.993,4.467,2,4.875v22.25c0,0.46,0.424,0.876,0.875,0.876h26.25
	c0.451,0,0.875-0.417,0.875-0.875V5.22c-0.001-0.673-0.529-1.223-1.031-1.219L2.688,4z M4,6h24v10l-2-2l-6,8l-6-6l-8,8H4V6z M9,8
	c-1.657,0-3,1.343-3,3c0,1.657,1.343,3,3,3c1.657,0,3-1.343,3-3C12,9.343,10.657,8,9,8z"/>
</svg>
