<?xml version="1.0" encoding="utf-8"?>
<!-- Generator: Adobe Illustrator 15.0.0, SVG Export Plug-In . SVG Version: 6.00 Build 0)  -->
<!DOCTYPE svg PUBLIC "-//W3C//DTD SVG 1.1//EN" "http://www.w3.org/Graphics/SVG/1.1/DTD/svg11.dtd">
<svg version="1.1"
	 id="Layer_1" xmlns:osb="http://www.openswatchbook.org/uri/2009/osb" xmlns:rdf="http://www.w3.org/1999/02/22-rdf-syntax-ns#" xmlns:cc="http://creativecommons.org/ns#" xmlns:dc="http://purl.org/dc/elements/1.1/"
	 xmlns="http://www.w3.org/2000/svg" xmlns:xlink="http://www.w3.org/1999/xlink" x="0px" y="0px" width="22.8px" height="16px"
	 viewBox="0 0 22.8 16" enable-background="new 0 0 22.8 16" xml:space="preserve">
<g>
	<g transform="translate(-.5 5.5737e-7)" opacity="0.95">
		<path fill="#4AA14D" d="M21.729,11.516H18.5c-0.182,0-0.313,0.01-0.391,0.026l-0.182,0.026v-0.026l0.143-0.144
			c0.131-0.156,0.222-0.269,0.273-0.338l4.805-6.901V3h-7.383v2.982h1.563V4.485h3.021c0.155,0,0.285-0.013,0.39-0.039
			c0.026,0,0.059-0.002,0.098-0.006c0.038-0.004,0.067-0.007,0.085-0.007v0.039l-0.145,0.117C20.7,4.667,20.608,4.784,20.503,4.94
			L15.7,11.828V13h7.604V9.967h-1.576L21.729,11.516L21.729,11.516z"/>
		<path fill="#4AA14D" d="M16.316,11.62L13.322,3h-2.11l-2.995,8.62H7.306V13h3.737v-1.38h-0.977l0.612-1.875h3.165l0.611,1.875
			h-0.977V13h3.75v-1.38H16.316L16.316,11.62z M11.108,8.313l0.95-2.838c0.034-0.104,0.067-0.23,0.098-0.378
			c0.03-0.147,0.045-0.226,0.045-0.234l0.039-0.261h0.052c0,0.035,0.009,0.122,0.026,0.261l0.156,0.612l0.938,2.838H11.108
			L11.108,8.313z"/>
	</g>
	<path fill="#4AA14D" d="M6.007,12.57H4.293V0.285c0-0.083-0.027-0.152-0.081-0.206C4.159,0.026,4.09,0,4.007,0H2.293
		C2.209,0,2.141,0.026,2.087,0.08C2.034,0.133,2.007,0.202,2.007,0.285v12.286H0.292c-0.131,0-0.22,0.06-0.268,0.179
		c-0.048,0.113-0.027,0.217,0.063,0.313l2.857,2.857C3.01,15.974,3.079,16,3.15,16c0.078,0,0.146-0.026,0.206-0.08l2.848-2.848
		c0.06-0.072,0.089-0.144,0.089-0.215c0-0.084-0.027-0.151-0.08-0.205c-0.054-0.054-0.122-0.08-0.206-0.08V12.57z"/>
</g>
</svg>
