<?xml version="1.0" encoding="utf-8"?>
<!-- Generator: Adobe Illustrator 15.0.0, SVG Export Plug-In . SVG Version: 6.00 Build 0)  -->
<!DOCTYPE svg PUBLIC "-//W3C//DTD SVG 1.1//EN" "http://www.w3.org/Graphics/SVG/1.1/DTD/svg11.dtd">
<svg version="1.1"
	 id="svg1" inkscape:version="0.40" sodipodi:docbase="/home/danny/work/flat/SVG/mono/scalable/actions" sodipodi:version="0.32" sodipodi:docname="copy.svg" xmlns:inkscape="http://www.inkscape.org/namespaces/inkscape" xmlns:sodipodi="http://sodipodi.sourceforge.net/DTD/sodipodi-0.dtd" xmlns:ns1="http://sozi.baierouge.fr" xmlns:rdf="http://www.w3.org/1999/02/22-rdf-syntax-ns#" xmlns:cc="http://web.resource.org/cc/" xmlns:dc="http://purl.org/dc/elements/1.1/"
	 xmlns="http://www.w3.org/2000/svg" xmlns:xlink="http://www.w3.org/1999/xlink" x="0px" y="0px" width="595.279px"
	 height="841.891px" viewBox="0 0 595.279 841.891" enable-background="new 0 0 595.279 841.891" xml:space="preserve">
<sodipodi:namedview  id="base" inkscape:pageshadow="2" inkscape:window-y="0" inkscape:window-height="699" inkscape:window-x="0" inkscape:current-layer="svg1" inkscape:window-width="1024" inkscape:pageopacity="0.0" inkscape:zoom="4.9119411" inkscape:cy="24.030855" pagecolor="#ffffff" borderopacity="1.0" bordercolor="#666666" inkscape:cx="60.290892">
	</sodipodi:namedview>
<path id="path1716" fill="none" stroke="#FFFFFF" stroke-width="8.3605" stroke-linejoin="round" d="M81.074,169.788
	c-13.218,0-23.858,10.641-23.858,23.858v304.335c0,13.219,10.642,23.854,23.858,23.854h287.163
	c13.219,0,23.854-10.636,23.854-23.854V193.646c0-13.216-10.637-23.856-23.854-23.856H81.074V169.788z"/>
<path id="rect1101" fill="#FFFFFF" stroke="#4AA14D" stroke-width="3.2156" stroke-linejoin="round" d="M81.074,169.788
	c-13.218,0-23.858,10.641-23.858,23.858v304.335c0,13.219,10.642,23.854,23.858,23.854h287.163
	c13.219,0,23.854-10.636,23.854-23.854V193.646c0-13.216-10.637-23.856-23.854-23.856H81.074V169.788z"/>
<path id="path1094" fill="none" stroke="#FFFFFF" stroke-width="8.3605" stroke-linejoin="round" d="M227.042,320.049
	c-13.209,0-23.854,10.645-23.854,23.864v304.335c0,13.219,10.645,23.854,23.854,23.854h287.163
	c13.221,0,23.864-10.635,23.864-23.854V343.913c0-13.219-10.645-23.864-23.864-23.864H227.042L227.042,320.049z"/>
<path id="rect1111" fill="#FFFFFF" stroke="#4AA14D" stroke-width="3.2156" stroke-linejoin="round" d="M227.042,320.049
	c-13.209,0-23.854,10.645-23.854,23.864v304.335c0,13.219,10.645,23.854,23.854,23.854h287.163
	c13.221,0,23.864-10.635,23.864-23.854V343.913c0-13.219-10.645-23.864-23.864-23.864H227.042L227.042,320.049z"/>
<path id="path1718" fill="none" stroke="#FFFFFF" stroke-width="8.125" stroke-linecap="round" stroke-linejoin="round" d="
	M123.59,337.596c23.067,203.675,199.916,189.994,211.284,188.933v60.905l89.104-88.189l-89.104-88.002v60.183
	C321.501,473.002,196.562,485.533,123.59,337.596L123.59,337.596z"/>
<path id="path1574" fill="#4AA14D" stroke="#FFFFFF" stroke-width="3.125" stroke-linecap="round" stroke-linejoin="round" d="
	M123.59,337.596c23.067,203.675,199.916,189.994,211.284,188.933v60.905l89.104-88.189l-89.104-88.002v60.183
	C321.501,473.002,196.562,485.533,123.59,337.596L123.59,337.596z"/>
</svg>
