<?xml version="1.0" encoding="utf-8"?>
<!-- Generator: Adobe Illustrator 15.0.0, SVG Export Plug-In . SVG Version: 6.00 Build 0)  -->
<!DOCTYPE svg PUBLIC "-//W3C//DTD SVG 1.1//EN" "http://www.w3.org/Graphics/SVG/1.1/DTD/svg11.dtd">
<svg version="1.1"
	 id="svg3937" inkscape:version="0.91 r13725" sodipodi:docname="social-diaspora.svg" xmlns:sodipodi="http://sodipodi.sourceforge.net/DTD/sodipodi-0.dtd" xmlns:inkscape="http://www.inkscape.org/namespaces/inkscape" xmlns:svg="http://www.w3.org/2000/svg" xmlns:rdf="http://www.w3.org/1999/02/22-rdf-syntax-ns#" xmlns:cc="http://creativecommons.org/ns#" xmlns:dc="http://purl.org/dc/elements/1.1/"
	 xmlns="http://www.w3.org/2000/svg" xmlns:xlink="http://www.w3.org/1999/xlink" x="0px" y="0px" width="32px" height="32px"
	 viewBox="0 0 32 32" enable-background="new 0 0 32 32" xml:space="preserve">
<sodipodi:namedview  inkscape:current-layer="svg3937" inkscape:window-height="480" inkscape:window-width="640" inkscape:pageshadow="2" inkscape:pageopacity="0" id="namedview4162" inkscape:cy="9.8488708" gridtolerance="10" objecttolerance="10" inkscape:cx="-5.9149036" inkscape:zoom="13.549078" pagecolor="#ffffff" borderopacity="1" bordercolor="#666666" guidetolerance="10" showgrid="false">
	</sodipodi:namedview>
<path id="star" inkscape:connector-curvature="0" opacity="0.5" fill="#4AA14D" enable-background="new    " d="M15.957,31
	c-0.896,0-1.345-0.448-1.345-1.345L14.715,19l-9.104,5.689c-0.689,0.482-1.275,0.346-1.758-0.414l-0.517-0.827
	c-0.483-0.689-0.345-1.276,0.414-1.759L13.164,16l-9.517-5.689c-0.689-0.414-0.828-1-0.414-1.759l0.621-1.035
	C4.198,6.966,4.75,6.896,5.509,7.311L14.715,13L14.612,2.345C14.612,1.448,15.06,1,15.957,1h0.828c0.896,0,1.345,0.448,1.345,1.345
	L18.025,13l9.104-5.793C27.75,6.862,28.336,7,28.888,7.621l0.517,0.828c0.346,0.759,0.207,1.345-0.413,1.759L19.475,16l9.619,5.793
	c0.69,0.414,0.828,0.966,0.414,1.655l-0.517,0.931c-0.483,0.76-1.104,0.896-1.862,0.414L18.025,19l0.104,10.655
	c0,0.896-0.448,1.345-1.345,1.345H15.957"/>
</svg>
