<?xml version="1.0" encoding="utf-8"?>
<!-- Generator: Adobe Illustrator 15.0.0, SVG Export Plug-In . SVG Version: 6.00 Build 0)  -->
<!DOCTYPE svg PUBLIC "-//W3C//DTD SVG 1.1//EN" "http://www.w3.org/Graphics/SVG/1.1/DTD/svg11.dtd">
<svg version="1.1"
	 id="Layer_1" inkscape:version="0.91 r13725" sodipodi:docname="social-googleplus.svg" xmlns:sodipodi="http://sodipodi.sourceforge.net/DTD/sodipodi-0.dtd" xmlns:inkscape="http://www.inkscape.org/namespaces/inkscape" xmlns:svg="http://www.w3.org/2000/svg" xmlns:rdf="http://www.w3.org/1999/02/22-rdf-syntax-ns#" xmlns:cc="http://creativecommons.org/ns#" xmlns:dc="http://purl.org/dc/elements/1.1/"
	 xmlns="http://www.w3.org/2000/svg" xmlns:xlink="http://www.w3.org/1999/xlink" x="0px" y="0px" width="32px" height="32px"
	 viewBox="0 0 32 32" enable-background="new 0 0 32 32" xml:space="preserve">
<sodipodi:namedview  inkscape:current-layer="Layer_1" inkscape:window-height="480" inkscape:window-width="640" inkscape:pageshadow="2" inkscape:pageopacity="0" id="namedview4717" inkscape:cy="25.296916" gridtolerance="10" objecttolerance="10" inkscape:cx="16.803685" inkscape:zoom="14.120039" pagecolor="#ffffff" borderopacity="1" bordercolor="#666666" guidetolerance="10" showgrid="false">
	</sodipodi:namedview>
<path id="path4713" inkscape:connector-curvature="0" opacity="0.5" fill="#4AA14D" enable-background="new    " d="M12.26,1
	c-1.044,0-2.165,0.122-3.36,0.365C7.693,1.649,6.529,2.25,5.409,3.171C3.777,4.748,2.962,6.502,2.962,8.438
	c0,1.601,0.576,3.003,1.728,4.209c1.1,1.293,2.699,1.954,4.797,1.98c0.395,0,0.818-0.027,1.266-0.078
	c-0.074,0.208-0.155,0.431-0.241,0.677c-0.099,0.23-0.148,0.522-0.148,0.87c0,0.578,0.129,1.076,0.389,1.488
	c0.222,0.424,0.475,0.823,0.76,1.197c-0.92,0.024-2.074,0.141-3.465,0.345c-1.405,0.243-2.746,0.73-4.021,1.458
	c-1.138,0.678-1.923,1.465-2.355,2.359C1.223,23.838,1,24.652,1,25.381c0,1.496,0.688,2.781,2.061,3.856
	C4.422,30.387,6.482,30.975,9.242,31c3.297-0.051,5.82-0.837,7.567-2.363c1.687-1.475,2.53-3.166,2.53-5.075
	c-0.026-1.345-0.333-2.434-0.922-3.268c-0.627-0.82-1.355-1.566-2.185-2.247l-1.337-1.096c-0.193-0.191-0.393-0.417-0.596-0.673
	c-0.242-0.269-0.362-0.607-0.362-1.021c0-0.422,0.118-0.793,0.353-1.113c0.2-0.309,0.416-0.584,0.651-0.827
	c0.41-0.359,0.797-0.712,1.161-1.056c0.329-0.347,0.641-0.725,0.933-1.135c0.6-0.846,0.912-1.974,0.935-3.383
	c0-0.769-0.087-1.442-0.26-2.018c-0.211-0.577-0.452-1.075-0.726-1.499C16.7,3.78,16.411,3.4,16.114,3.093
	c-0.309-0.295-0.587-0.519-0.835-0.672h2.43L20.141,1H12.26z M24.678,1.168v4.136h-4.133v2.003h4.133v4.134h2.004V7.307h4.135V5.304
	h-4.135V1.168H24.678z M9.823,2.305c0.807,0.026,1.521,0.265,2.142,0.712c0.608,0.475,1.099,1.092,1.473,1.849
	c0.794,1.578,1.192,3.146,1.192,4.698c0,0.36-0.03,0.802-0.087,1.329c-0.095,0.526-0.309,1.04-0.643,1.54
	c-0.691,0.707-1.555,1.081-2.592,1.119c-0.822,0-1.551-0.25-2.189-0.752c-0.64-0.5-1.16-1.11-1.564-1.829
	C6.72,9.43,6.304,7.948,6.304,6.523C6.277,5.445,6.563,4.469,7.16,3.597C7.868,2.761,8.755,2.331,9.823,2.305z M11.49,19.846
	c0.089,0,0.159,0.002,0.209,0.009c0.338,0,0.633,0.012,0.885,0.038c1.469,1.026,2.547,1.891,3.238,2.596
	c0.651,0.742,0.977,1.612,0.977,2.613c0,1.231-0.477,2.236-1.431,3.02c-0.978,0.795-2.396,1.203-4.252,1.23
	c-2.071-0.027-3.701-0.487-4.894-1.384c-1.254-0.897-1.879-2.038-1.879-3.423c0-0.704,0.143-1.307,0.433-1.807
	c0.249-0.475,0.557-0.872,0.92-1.191c0.377-0.308,0.747-0.546,1.11-0.712c0.364-0.153,0.646-0.27,0.847-0.347
	c0.853-0.256,1.688-0.441,2.504-0.557C10.778,19.874,11.222,19.846,11.49,19.846L11.49,19.846z"/>
</svg>
