<?xml version="1.0" encoding="utf-8"?>
<!-- Generator: Adobe Illustrator 15.0.0, SVG Export Plug-In . SVG Version: 6.00 Build 0)  -->
<!DOCTYPE svg PUBLIC "-//W3C//DTD SVG 1.1//EN" "http://www.w3.org/Graphics/SVG/1.1/DTD/svg11.dtd">
<svg version="1.1"
	 id="svg2" inkscape:version="0.91 r13725" sodipodi:docname="social-twitter.svg" xmlns:sodipodi="http://sodipodi.sourceforge.net/DTD/sodipodi-0.dtd" xmlns:inkscape="http://www.inkscape.org/namespaces/inkscape" xmlns:svg="http://www.w3.org/2000/svg" xmlns:rdf="http://www.w3.org/1999/02/22-rdf-syntax-ns#" xmlns:cc="http://creativecommons.org/ns#" xmlns:dc="http://purl.org/dc/elements/1.1/"
	 xmlns="http://www.w3.org/2000/svg" xmlns:xlink="http://www.w3.org/1999/xlink" x="0px" y="0px" width="32px" height="32px"
	 viewBox="0 0 32 32" enable-background="new 0 0 32 32" xml:space="preserve">
<sodipodi:namedview  inkscape:current-layer="svg2" inkscape:window-height="480" inkscape:window-width="640" inkscape:pageshadow="2" inkscape:pageopacity="0" id="namedview5267" inkscape:cy="16.128046" gridtolerance="10" objecttolerance="10" inkscape:cx="-7.2593811" inkscape:zoom="10.224" pagecolor="#ffffff" borderopacity="1" bordercolor="#666666" guidetolerance="10" showgrid="false">
	</sodipodi:namedview>
<path id="rect2995" inkscape:connector-curvature="0" sodipodi:nodetypes="sscccccsscsccscsccsccss" opacity="0.5" fill="#4AA14D" enable-background="new    " d="
	M21.611,4.62c0.053-0.002,0.105,0,0.159,0c1.771,0,3.37,0.748,4.492,1.943c1.402-0.276,2.721-0.79,3.909-1.496
	c-0.459,1.438-1.436,2.644-2.707,3.405C28.711,8.325,29.896,7.995,31,7.504c-0.824,1.234-1.869,2.319-3.071,3.185
	c0.012,0.264,0.019,0.531,0.019,0.798C27.947,19.621,21.756,29,10.434,29C6.958,29,3.725,27.98,1,26.233
	c0.482,0.058,0.972,0.087,1.469,0.087c2.884,0,5.536-0.984,7.643-2.635c-2.693-0.05-4.965-1.831-5.749-4.276
	c0.375,0.072,0.762,0.111,1.159,0.111c0.562,0,1.104-0.075,1.621-0.216c-2.816-0.566-4.938-3.052-4.938-6.033
	c0-0.026,0-0.054,0-0.08c0.83,0.461,1.781,0.738,2.79,0.771c-1.652-1.104-2.739-2.986-2.739-5.122c0-1.129,0.304-2.188,0.834-3.096
	c3.036,3.724,7.571,6.174,12.687,6.431c-0.105-0.451-0.159-0.921-0.159-1.403C15.617,7.427,18.286,4.704,21.611,4.62z"/>
</svg>
