<?xml version="1.0" encoding="utf-8"?>
<!-- Generator: Adobe Illustrator 15.0.0, SVG Export Plug-In . SVG Version: 6.00 Build 0)  -->
<!DOCTYPE svg PUBLIC "-//W3C//DTD SVG 1.1//EN" "http://www.w3.org/Graphics/SVG/1.1/DTD/svg11.dtd">
<svg version="1.1"
	 id="svg2880" inkscape:version="0.91 r13725" sodipodi:docname="social-gnu.svg" xmlns:sodipodi="http://sodipodi.sourceforge.net/DTD/sodipodi-0.dtd" xmlns:inkscape="http://www.inkscape.org/namespaces/inkscape" xmlns:svg="http://www.w3.org/2000/svg" xmlns:rdf="http://www.w3.org/1999/02/22-rdf-syntax-ns#" xmlns:cc="http://creativecommons.org/ns#" xmlns:dc="http://purl.org/dc/elements/1.1/" inkscape:export-filename="/home/robmyers/Desktop/social_logo_competition/gnu-social-logo.png" inkscape:export-ydpi="90" inkscape:export-xdpi="90"
	 xmlns="http://www.w3.org/2000/svg" xmlns:xlink="http://www.w3.org/1999/xlink" x="0px" y="0px" width="32px" height="32px"
	 viewBox="0 0 32 32" enable-background="new 0 0 32 32" xml:space="preserve">
<defs>
	
	
		<inkscape:perspective  id="perspective2888" inkscape:vp_x="0 : 526.18109 : 1" sodipodi:type="inkscape:persp3d" inkscape:vp_y="0 : 1000 : 0" inkscape:vp_z="744.09448 : 526.18109 : 1" inkscape:persp3d-origin="372.04724 : 350.78739 : 1">
		</inkscape:perspective>
	
		<inkscape:perspective  id="perspective2859" inkscape:vp_x="0 : 0.5 : 1" sodipodi:type="inkscape:persp3d" inkscape:vp_y="0 : 1000 : 0" inkscape:vp_z="1 : 0.5 : 1" inkscape:persp3d-origin="0.5 : 0.33333333 : 1">
		</inkscape:perspective>
</defs>
<sodipodi:namedview  inkscape:window-maximized="0" inkscape:current-layer="layer1" inkscape:window-y="49" inkscape:window-x="0" inkscape:window-height="730" inkscape:window-width="1022" inkscape:pageshadow="2" inkscape:pageopacity="0.0" id="base" inkscape:cy="18.472465" inkscape:cx="13.854211" inkscape:zoom="17.21204" pagecolor="#ffffff" borderopacity="1.0" bordercolor="#666666" showgrid="false" inkscape:document-units="px">
	</sodipodi:namedview>
<g id="layer1" transform="translate(-119.19595,-352.32438)" inkscape:label="Layer 1" inkscape:groupmode="layer">
	<path id="path4639" inkscape:connector-curvature="0" opacity="0.5" fill="#4AA14D" enable-background="new    " d="
		M125.141,354.324c-2.186,0-3.945,1.76-3.945,3.945v15.77c0,2.186,1.759,3.943,3.945,3.943h11.725
		c-0.014,4.469-6.054,6.342-6.054,6.342s10.212-0.033,11.657-6.342h2.127c2.186,0,3.945-1.758,3.945-3.943v-15.77
		c0-2.185-1.76-3.945-3.945-3.945H125.141z M130.807,357.486c0.042-0.007,0.08-0.007,0.115,0c0.037,0.007,0.068,0.022,0.094,0.045
		c0.419,0.374-0.695,0.739-0.605,2.577c0.039,0.807-0.202,1.435,1.345,1.435c1.032,0,0.605-0.919,1.905-0.919
		c0.773,0,1.058,0.498,1.166,0.902c0.107-0.404,0.393-0.902,1.166-0.902c1.3,0,0.873,0.919,1.905,0.919
		c1.547,0,1.305-0.628,1.345-1.435c0.089-1.838-1.024-2.204-0.606-2.577c0.42-0.374,2.221,1.815,2.265,2.667
		c0.048,0.89,0.069,2.294-1.255,3.022c1.479,1.457,1.676,3.388,1.676,3.388l-2.555-0.044c0,0-0.582-2.645-3.675-2.511
		c-3.093,0.134-3.496,0.672-3.496,3.945s1.434,4.396,3.63,4.482c3.451,0.135,3.139-1.793,3.139-1.793l-1.614,0.09l-0.896-2.421
		h5.513c0,2.646-1.119,6.769-6.364,6.5c-5.245-0.269-6.411-4.394-6.456-7.172c-0.024-1.526,0.224-3.246,1.474-4.463
		c-1.31-0.727-1.268-2.131-1.268-3.023C128.752,359.096,130.177,357.583,130.807,357.486L130.807,357.486z"/>
</g>
</svg>
