<?xml version="1.0" encoding="utf-8"?>
<!-- Generator: Adobe Illustrator 15.0.0, SVG Export Plug-In . SVG Version: 6.00 Build 0)  -->
<!DOCTYPE svg PUBLIC "-//W3C//DTD SVG 1.1//EN" "http://www.w3.org/Graphics/SVG/1.1/DTD/svg11.dtd">
<svg version="1.1"
	 id="Layer_1" xmlns:rdf="http://www.w3.org/1999/02/22-rdf-syntax-ns#" xmlns:cc="http://creativecommons.org/ns#" xmlns:dc="http://purl.org/dc/elements/1.1/"
	 xmlns="http://www.w3.org/2000/svg" xmlns:xlink="http://www.w3.org/1999/xlink" x="0px" y="0px" width="16px" height="16px"
	 viewBox="0 0 16 16" enable-background="new 0 0 16 16" xml:space="preserve">
<g transform="matrix(.79998 0 0 .8 1.6 1.9554)">
	<path fill="#4AA14D" d="M6.938,0.056C6.689,0.056,6.5,0.245,6.5,0.493v1.25C5.946,1.886,5.449,2.115,4.969,2.399L4.063,1.494
		c-0.176-0.176-0.45-0.176-0.625,0l-1.5,1.5c-0.176,0.176-0.176,0.449,0,0.625l0.906,0.906C2.559,5.004,2.33,5.502,2.188,6.056
		h-1.25C0.689,6.056,0.5,6.245,0.5,6.494v2.124c0,0.249,0.189,0.438,0.438,0.438h1.25c0.142,0.554,0.372,1.051,0.656,1.532
		l-0.906,0.906c-0.176,0.176-0.176,0.449,0,0.625l1.5,1.5c0.175,0.176,0.449,0.176,0.625,0l0.906-0.907
		c0.48,0.286,0.978,0.514,1.531,0.657v1.25c0,0.248,0.189,0.437,0.438,0.437h2.125c0.249,0,0.437-0.189,0.437-0.438v-1.25
		c0.554-0.143,1.052-0.372,1.532-0.656l0.907,0.906c0.175,0.176,0.449,0.176,0.625,0l1.499-1.5c0.176-0.176,0.176-0.449,0-0.625
		l-0.906-0.906c0.286-0.48,0.514-0.978,0.656-1.531h1.25c0.249,0,0.438-0.189,0.438-0.438V6.493c0-0.248-0.189-0.438-0.438-0.438
		h-1.25c-0.142-0.554-0.37-1.051-0.656-1.531l0.906-0.906c0.176-0.176,0.176-0.45,0-0.625l-1.499-1.5
		c-0.176-0.176-0.45-0.176-0.625,0l-0.907,0.906c-0.48-0.284-0.977-0.514-1.531-0.656v-1.25c0.001-0.249-0.189-0.438-0.437-0.438
		L6.938,0.056z M8,4.213c1.846,0,3.342,1.497,3.342,3.342c0,1.846-1.497,3.342-3.342,3.342c-1.845,0-3.343-1.497-3.343-3.342
		C4.657,5.711,6.155,4.213,8,4.213L8,4.213z"/>
</g>
</svg>
