<?xml version="1.0" encoding="utf-8"?>
<!-- Generator: Adobe Illustrator 15.0.0, SVG Export Plug-In . SVG Version: 6.00 Build 0)  -->
<!DOCTYPE svg PUBLIC "-//W3C//DTD SVG 1.1//EN" "http://www.w3.org/Graphics/SVG/1.1/DTD/svg11.dtd">
<svg version="1.1"
	 id="Layer_1" xmlns:rdf="http://www.w3.org/1999/02/22-rdf-syntax-ns#" xmlns:cc="http://creativecommons.org/ns#" xmlns:dc="http://purl.org/dc/elements/1.1/"
	 xmlns="http://www.w3.org/2000/svg" xmlns:xlink="http://www.w3.org/1999/xlink" x="0px" y="0px" width="16px" height="16px"
	 viewBox="0 0 16 16" enable-background="new 0 0 16 16" xml:space="preserve">
<path fill="#4AA14D" d="M12.805,1.001c-2.199,0.354-5.144,0.72-7.338,1.094c-0.581,0.284-0.45,1.013-0.476,1.543v7.089
	c-1.225-0.229-2.717,0.782-2.782,2.384c-0.105,0.997,0.779,1.865,1.74,1.889c1.722,0.042,2.899-1.101,2.918-2.546
	c-0.019-2.426,0.005-4.853,0-7.279c0.267-0.02,4.303-0.79,4.667-0.841v5.452c-1.07-0.256-2.438,0.447-2.776,1.883
	c-0.144,0.805,0.128,1.815,0.944,2.156c1.594,0.732,3.783-0.752,3.693-2.493c-0.024-3.235,0.021-6.472,0-9.707
	C13.354,1.32,13.146,0.979,12.805,1.001L12.805,1.001z"/>
</svg>
