<?xml version="1.0" encoding="utf-8"?>
<!-- Generator: Adobe Illustrator 15.0.0, SVG Export Plug-In . SVG Version: 6.00 Build 0)  -->
<!DOCTYPE svg PUBLIC "-//W3C//DTD SVG 1.1//EN" "http://www.w3.org/Graphics/SVG/1.1/DTD/svg11.dtd">
<svg version="1.1"
	 id="Layer_1" xmlns:rdf="http://www.w3.org/1999/02/22-rdf-syntax-ns#" xmlns:cc="http://creativecommons.org/ns#" xmlns:dc="http://purl.org/dc/elements/1.1/"
	 xmlns="http://www.w3.org/2000/svg" xmlns:xlink="http://www.w3.org/1999/xlink" x="0px" y="0px" width="16px" height="16px"
	 viewBox="0 0 16 16" enable-background="new 0 0 16 16" xml:space="preserve">
<path fill="#4AA14D" d="M1.461,2C1.21,2,1,2.21,1,2.461v11.078C1,13.798,1.202,14,1.461,14h13.078C14.798,14,15,13.798,15,13.539
	V4.463C15,4.212,14.79,4,14.539,4H8L6,2H1.461L1.461,2z M10.113,5.494c0.679,0,1.227,0.55,1.227,1.229s-0.548,1.229-1.227,1.229
	c-0.303,0-0.581-0.11-0.795-0.291L6.949,8.867c0.003,0.035,0.008,0.071,0.008,0.107c0,0.064-0.008,0.128-0.018,0.189l2.348,1.199
	c0.219-0.198,0.508-0.32,0.826-0.32c0.679,0,1.229,0.552,1.229,1.23s-0.55,1.227-1.229,1.227c-0.678,0-1.229-0.548-1.229-1.227
	c0-0.022,0.003-0.047,0.004-0.068L6.457,9.969C6.253,10.12,6,10.207,5.727,10.207C5.048,10.207,4.5,9.658,4.5,8.98
	c0-0.678,0.548-1.227,1.227-1.227c0.304,0,0.584,0.109,0.799,0.293L8.893,6.84C8.889,6.803,8.885,6.764,8.885,6.727
	c0-0.678,0.551-1.227,1.229-1.227V5.494z"/>
</svg>
