<?xml version="1.0" encoding="utf-8"?>
<!-- Generator: Adobe Illustrator 15.0.0, SVG Export Plug-In . SVG Version: 6.00 Build 0)  -->
<!DOCTYPE svg PUBLIC "-//W3C//DTD SVG 1.1//EN" "http://www.w3.org/Graphics/SVG/1.1/DTD/svg11.dtd">
<svg version="1.1"
	 id="Layer_1" xmlns:rdf="http://www.w3.org/1999/02/22-rdf-syntax-ns#" xmlns:cc="http://creativecommons.org/ns#" xmlns:dc="http://purl.org/dc/elements/1.1/"
	 xmlns="http://www.w3.org/2000/svg" xmlns:xlink="http://www.w3.org/1999/xlink" x="0px" y="0px" width="16px" height="16px"
	 viewBox="0 0 16 16" enable-background="new 0 0 16 16" xml:space="preserve">
<path fill="#4AA14D" d="M1.461,2C1.21,2,1,2.21,1,2.461v11.078C1,13.798,1.202,14,1.461,14h13.078C14.798,14,15,13.798,15,13.539
	V4.463C15,4.212,14.79,4,14.539,4H8L6,2H1.461L1.461,2z M8.006,4.887L9.078,7.57L12,7.801L9.777,9.648l0.686,2.852l-2.445-1.543
	l-2.5,1.533l0.711-2.803L4,7.783l2.885-0.188L8.006,4.887z"/>
</svg>
