<?xml version="1.0" encoding="utf-8"?>
<!-- Generator: Adobe Illustrator 15.0.0, SVG Export Plug-In . SVG Version: 6.00 Build 0)  -->
<!DOCTYPE svg PUBLIC "-//W3C//DTD SVG 1.1//EN" "http://www.w3.org/Graphics/SVG/1.1/DTD/svg11.dtd">
<svg version="1.1"
	 id="Layer_1" xmlns:rdf="http://www.w3.org/1999/02/22-rdf-syntax-ns#" xmlns:cc="http://creativecommons.org/ns#" xmlns:dc="http://purl.org/dc/elements/1.1/"
	 xmlns="http://www.w3.org/2000/svg" xmlns:xlink="http://www.w3.org/1999/xlink" x="0px" y="0px" width="16px" height="16px"
	 viewBox="0 0 16 16" enable-background="new 0 0 16 16" xml:space="preserve">
<path fill="#4AA14D" d="M1.461,2C1.21,2,1,2.21,1,2.461v11.078C1,13.798,1.202,14,1.461,14h13.078C14.798,14,15,13.798,15,13.539
	V4.463C15,4.212,14.79,4,14.539,4H8L6,2H1.461L1.461,2z M9.844,5.5c0.426,0,0.852,0.16,1.174,0.482c0.645,0.644,0.645,1.704,0,2.348
	L9.969,9.377c0.045-0.393-0.018-0.789-0.188-1.152l0.564-0.564c0.284-0.284,0.284-0.722,0-1.006c-0.285-0.284-0.722-0.284-1.006,0
	L7.664,8.33c-0.284,0.284-0.284,0.722,0,1.006c0.06,0.06,0.129,0.1,0.199,0.135l-0.691,0.691c-0.064-0.048-0.119-0.098-0.178-0.156
	c-0.644-0.645-0.644-1.702,0-2.346L8.67,5.982C8.992,5.66,9.418,5.5,9.844,5.5z M8.828,7.838c0.064,0.048,0.119,0.098,0.178,0.156
	c0.645,0.644,0.643,1.701,0,2.346v0.002L7.33,12.018c-0.644,0.645-1.704,0.645-2.348,0s-0.644-1.703,0-2.348l1.049-1.047
	C5.987,9.016,6.049,9.412,6.219,9.775L5.654,10.34c-0.284,0.284-0.284,0.721,0,1.006c0.284,0.284,0.722,0.284,1.006,0L8.336,9.67
	c0.284-0.284,0.284-0.722,0-1.006c-0.06-0.06-0.129-0.1-0.199-0.135L8.828,7.838z"/>
</svg>
