<?xml version="1.0" encoding="utf-8"?>
<!-- Generator: Adobe Illustrator 15.0.0, SVG Export Plug-In . SVG Version: 6.00 Build 0)  -->
<!DOCTYPE svg PUBLIC "-//W3C//DTD SVG 1.1//EN" "http://www.w3.org/Graphics/SVG/1.1/DTD/svg11.dtd">
<svg version="1.1"
	 id="Layer_1" xmlns:rdf="http://www.w3.org/1999/02/22-rdf-syntax-ns#" xmlns:cc="http://creativecommons.org/ns#" xmlns:dc="http://purl.org/dc/elements/1.1/"
	 xmlns="http://www.w3.org/2000/svg" xmlns:xlink="http://www.w3.org/1999/xlink" x="0px" y="0px" width="16px" height="16px"
	 viewBox="0 0 16 16" enable-background="new 0 0 16 16" xml:space="preserve">
<g transform="matrix(.5 0 0 .5 290.36 -.78825)">
	<path fill="#4AA14D" d="M-572.71,3.576c-1.107,0-2,0.892-2,2v4c0,1.107,0.893,2,2,2c1.108,0,2-0.893,2-2v-4
		C-570.71,4.468-571.602,3.576-572.71,3.576z M-556.71,3.576c-1.107,0-2,0.892-2,2v4c0,1.107,0.893,2,2,2s2-0.893,2-2v-4
		C-554.71,4.468-555.603,3.576-556.71,3.576z M-569.71,7.576v2c0,1.662-1.338,3-3,3s-3-1.338-3-3V7.701
		c-1.728,0.442-3,2.005-3,3.875v16c0,2.215,1.784,4,4,4h20c2.217,0,4-1.785,4-4v-16c0-1.87-1.271-3.433-3-3.875v1.875
		c0,1.662-1.338,3-3,3s-3-1.338-3-3v-2H-569.71z M-575.616,16.576h21.813c0.057,0,0.094,0.038,0.094,0.094v11.813
		c0,0.055-0.039,0.094-0.094,0.094h-21.813c-0.056,0-0.094-0.039-0.094-0.094V16.67C-575.71,16.615-575.671,16.576-575.616,16.576z"
		/>
</g>
</svg>
