<?xml version="1.0" encoding="utf-8"?>
<!-- Generator: Adobe Illustrator 15.0.0, SVG Export Plug-In . SVG Version: 6.00 Build 0)  -->
<!DOCTYPE svg PUBLIC "-//W3C//DTD SVG 1.1//EN" "http://www.w3.org/Graphics/SVG/1.1/DTD/svg11.dtd">
<svg version="1.1"
	 id="Layer_1" xmlns:rdf="http://www.w3.org/1999/02/22-rdf-syntax-ns#" xmlns:cc="http://creativecommons.org/ns#" xmlns:dc="http://purl.org/dc/elements/1.1/"
	 xmlns="http://www.w3.org/2000/svg" xmlns:xlink="http://www.w3.org/1999/xlink" x="0px" y="0px" width="16px" height="16px"
	 viewBox="0 0 16 16" enable-background="new 0 0 16 16" xml:space="preserve">
<path fill="#4AA14D" d="M4.616,3.333c-0.978,0-1.807,0.715-1.807,1.637c0.007,0.292,0.033,0.651,0.207,1.412V6.4l0.019,0.019
	c0.056,0.16,0.137,0.251,0.245,0.376C3.387,6.92,3.515,7.067,3.637,7.19c0.014,0.015,0.023,0.023,0.038,0.038
	c0.024,0.105,0.053,0.219,0.075,0.32c0.058,0.27,0.052,0.461,0.038,0.527c-0.42,0.147-0.942,0.323-1.412,0.526
	C2.113,8.717,1.875,8.818,1.68,8.94S1.291,9.155,1.228,9.43c-0.001,0.013-0.001,0.025,0,0.038c-0.062,0.565-0.155,1.396-0.226,1.957
	c-0.016,0.118,0.047,0.243,0.15,0.302c0.852,0.459,2.159,0.645,3.463,0.639c1.303-0.004,2.601-0.2,3.425-0.639
	c0.104-0.059,0.166-0.184,0.151-0.302c-0.023-0.175-0.051-0.571-0.076-0.96C8.091,10.076,8.07,9.693,8.041,9.468
	C8.03,9.412,8.004,9.359,7.965,9.316c-0.262-0.313-0.653-0.503-1.11-0.695C6.438,8.445,5.948,8.262,5.462,8.056
	c-0.027-0.061-0.054-0.236,0-0.508C5.477,7.475,5.5,7.397,5.519,7.322C5.565,7.271,5.6,7.229,5.651,7.172
	c0.108-0.123,0.224-0.252,0.32-0.376c0.096-0.125,0.175-0.231,0.226-0.376L6.215,6.4c0.197-0.794,0.197-1.125,0.207-1.412V4.97
	C6.422,4.047,5.593,3.333,4.616,3.333L4.616,3.333z M9.783,1.83c-1.425,0-2.634,1.042-2.634,2.387
	c0.01,0.425,0.048,0.949,0.302,2.058v0.027L7.479,6.33c0.082,0.233,0.2,0.367,0.357,0.549s0.344,0.396,0.521,0.576
	C8.377,7.476,8.391,7.489,8.412,7.51c0.035,0.153,0.078,0.318,0.11,0.466C8.605,8.37,8.598,8.648,8.576,8.744
	C7.964,8.959,7.202,9.215,6.519,9.512C6.135,9.68,5.787,9.828,5.503,10.006c-0.284,0.179-0.567,0.313-0.659,0.714
	c-0.001,0.019-0.001,0.036,0,0.055c-0.09,0.824-0.226,2.036-0.329,2.854c-0.022,0.173,0.068,0.354,0.219,0.438
	C5.976,14.737,7.883,15.008,9.783,15s3.792-0.293,4.994-0.934c0.15-0.085,0.242-0.266,0.219-0.438
	c-0.033-0.256-0.073-0.832-0.109-1.399c-0.036-0.566-0.066-1.125-0.109-1.454c-0.016-0.081-0.054-0.159-0.109-0.22
	c-0.383-0.455-0.953-0.734-1.619-1.016c-0.609-0.256-1.322-0.521-2.031-0.822c-0.039-0.088-0.078-0.345,0-0.741
	c0.021-0.106,0.055-0.22,0.083-0.33c0.066-0.074,0.118-0.135,0.192-0.219c0.156-0.18,0.326-0.368,0.466-0.549
	s0.255-0.336,0.329-0.549l0.027-0.027c0.287-1.157,0.287-1.641,0.303-2.058V4.217C12.418,2.872,11.209,1.83,9.783,1.83L9.783,1.83z"
	/>
</svg>
